<svg width="28" height="22" viewBox="0 0 28 22" fill="none" xmlns="http://www.w3.org/2000/svg">
<g id="phone-fill">
<path id="Vector" d="M24.229 15.0517V18.293C24.2292 18.5251 24.1195 18.7486 23.9222 18.9183C23.7248 19.0881 23.4545 19.1916 23.1657 19.2078C22.6661 19.2353 22.2579 19.25 21.9423 19.25C11.8384 19.25 3.64844 12.6839 3.64844 4.58333C3.64844 4.33033 3.66559 4.00308 3.70103 3.6025C3.7213 3.37099 3.85033 3.15426 4.06211 2.99604C4.27389 2.83782 4.55264 2.7499 4.84211 2.75H8.88506C9.02688 2.74989 9.16369 2.79204 9.26892 2.86827C9.37414 2.9445 9.44027 3.04937 9.45445 3.1625C9.48075 3.37333 9.50476 3.54108 9.52763 3.6685C9.75486 4.93985 10.2205 6.17635 10.9088 7.33608C11.0174 7.51942 10.9465 7.7385 10.7407 7.85583L8.27336 9.26933C9.78198 12.0876 12.5833 14.3335 16.0986 15.543L17.8593 13.5685C17.9313 13.4878 18.0363 13.43 18.156 13.405C18.2758 13.3801 18.4026 13.3896 18.5145 13.4319C19.9609 13.9827 21.5028 14.3551 23.088 14.5365C23.2469 14.5548 23.4561 14.575 23.7168 14.5952C23.8577 14.6067 23.9882 14.6599 24.0831 14.7442C24.1779 14.8285 24.2304 14.9381 24.2302 15.0517H24.229Z" fill="#00C938"/>
</g>
</svg>
