<svg width="22" height="22" viewBox="0 0 22 22" fill="none" xmlns="http://www.w3.org/2000/svg">
<path d="M10.0835 10.0833V6.41668H11.9168V10.0833H15.5835V11.9167H11.9168V15.5833H10.0835V11.9167H6.41683V10.0833H10.0835ZM11.0002 20.1667C5.93741 20.1667 1.8335 16.0628 1.8335 11C1.8335 5.93726 5.93741 1.83334 11.0002 1.83334C16.0629 1.83334 20.1668 5.93726 20.1668 11C20.1668 16.0628 16.0629 20.1667 11.0002 20.1667ZM11.0002 18.3333C12.9451 18.3333 14.8103 17.5607 16.1856 16.1855C17.5609 14.8102 18.3335 12.9449 18.3335 11C18.3335 9.05509 17.5609 7.18983 16.1856 5.81456C14.8103 4.43929 12.9451 3.66668 11.0002 3.66668C9.05524 3.66668 7.18998 4.43929 5.81471 5.81456C4.43945 7.18983 3.66683 9.05509 3.66683 11C3.66683 12.9449 4.43945 14.8102 5.81471 16.1855C7.18998 17.5607 9.05524 18.3333 11.0002 18.3333Z" fill="#303030"/>
</svg>
