<svg width="28" height="22" viewBox="0 0 28 22" fill="none" xmlns="http://www.w3.org/2000/svg">
<g id="mail-unread-fill" clip-path="url(#clip0_196_35)">
<path id="Vector" d="M21.7169 7.78525C22.8511 8.22812 24.1357 8.35923 25.3722 8.15833V18.3333C25.3722 18.5764 25.2518 18.8096 25.0373 18.9815C24.8229 19.1534 24.5321 19.25 24.2289 19.25H3.64825C3.34501 19.25 3.05419 19.1534 2.83977 18.9815C2.62534 18.8096 2.50488 18.5764 2.50488 18.3333V3.66666C2.50488 3.42355 2.62534 3.19039 2.83977 3.01848C3.05419 2.84657 3.34501 2.75 3.64825 2.75H18.6264C18.5509 3.04608 18.512 3.35316 18.512 3.66666C18.5101 4.75571 18.9939 5.80942 19.8761 6.63758L14.0083 10.7094L6.67474 5.71816L5.19523 7.11516L14.022 13.1239L21.7169 7.78525ZM24.2289 6.41666C23.7784 6.41666 23.3324 6.34553 22.9162 6.20733C22.5001 6.06913 22.1219 5.86657 21.8034 5.61121C21.4849 5.35585 21.2322 5.05269 21.0599 4.71904C20.8875 4.3854 20.7988 4.0278 20.7988 3.66666C20.7988 3.30553 20.8875 2.94793 21.0599 2.61428C21.2322 2.28064 21.4849 1.97748 21.8034 1.72212C22.1219 1.46676 22.5001 1.2642 22.9162 1.126C23.3324 0.987795 23.7784 0.916664 24.2289 0.916664C25.1386 0.916664 26.011 1.2064 26.6543 1.72212C27.2976 2.23785 27.659 2.93732 27.659 3.66666C27.659 4.39601 27.2976 5.09548 26.6543 5.61121C26.011 6.12693 25.1386 6.41666 24.2289 6.41666Z" fill="#FFB422"/>
</g>
<defs>
<clipPath id="clip0_196_35">
<rect width="27.4408" height="22" fill="white" transform="translate(0.218262)"/>
</clipPath>
</defs>
</svg>
